<mxfile host="Electron" agent="Mozilla/5.0 (Windows NT 10.0; Win64; x64) AppleWebKit/537.36 (KHTML, like Gecko) draw.io/26.1.1 Chrome/132.0.6834.210 Electron/34.3.3 Safari/537.36" version="26.1.1">
  <diagram name="Page-1" id="05uL9bW9bh4vZ2yhH4rQ">
    <mxGraphModel dx="2100" dy="1242" grid="1" gridSize="10" guides="1" tooltips="1" connect="1" arrows="1" fold="1" page="1" pageScale="1" pageWidth="827" pageHeight="1169" math="0" shadow="0">
      <root>
        <mxCell id="0" />
        <mxCell id="1" parent="0" />
        <mxCell id="5Shk7cCS_hNFrzOePCo_-1" value="Raspi4" style="shape=umlFrame;whiteSpace=wrap;html=1;pointerEvents=0;fillColor=#f8cecc;strokeColor=#b85450;" vertex="1" parent="1">
          <mxGeometry x="174" y="150" width="480" height="460" as="geometry" />
        </mxCell>
        <mxCell id="5Shk7cCS_hNFrzOePCo_-2" value="main.py" style="shape=umlFrame;whiteSpace=wrap;html=1;pointerEvents=0;fillColor=#dae8fc;strokeColor=#6c8ebf;" vertex="1" parent="1">
          <mxGeometry x="184" y="240" width="460" height="360" as="geometry" />
        </mxCell>
        <mxCell id="5Shk7cCS_hNFrzOePCo_-3" value="driver_lidar.cpp" style="shape=umlFrame;whiteSpace=wrap;html=1;pointerEvents=0;width=95;height=30;fillColor=#dae8fc;strokeColor=#6c8ebf;" vertex="1" parent="1">
          <mxGeometry x="286.5" y="170" width="115" height="40" as="geometry" />
        </mxCell>
        <mxCell id="5Shk7cCS_hNFrzOePCo_-70" style="edgeStyle=orthogonalEdgeStyle;rounded=0;orthogonalLoop=1;jettySize=auto;html=1;entryX=0.5;entryY=0;entryDx=0;entryDy=0;" edge="1" parent="1" source="5Shk7cCS_hNFrzOePCo_-4" target="5Shk7cCS_hNFrzOePCo_-25">
          <mxGeometry relative="1" as="geometry" />
        </mxCell>
        <mxCell id="5Shk7cCS_hNFrzOePCo_-4" value="Thread1: lidar" style="shape=umlFrame;whiteSpace=wrap;html=1;pointerEvents=0;width=90;height=30;fillColor=#ffe6cc;strokeColor=#d79b00;" vertex="1" parent="1">
          <mxGeometry x="285.5" y="250" width="116" height="60" as="geometry" />
        </mxCell>
        <mxCell id="5Shk7cCS_hNFrzOePCo_-34" style="edgeStyle=orthogonalEdgeStyle;rounded=0;orthogonalLoop=1;jettySize=auto;html=1;entryX=0.5;entryY=0;entryDx=0;entryDy=0;" edge="1" parent="1" source="5Shk7cCS_hNFrzOePCo_-5" target="5Shk7cCS_hNFrzOePCo_-27">
          <mxGeometry relative="1" as="geometry" />
        </mxCell>
        <mxCell id="5Shk7cCS_hNFrzOePCo_-35" style="edgeStyle=orthogonalEdgeStyle;rounded=0;orthogonalLoop=1;jettySize=auto;html=1;entryX=0.5;entryY=1;entryDx=0;entryDy=0;" edge="1" parent="1" source="5Shk7cCS_hNFrzOePCo_-5" target="5Shk7cCS_hNFrzOePCo_-26">
          <mxGeometry relative="1" as="geometry" />
        </mxCell>
        <mxCell id="5Shk7cCS_hNFrzOePCo_-5" value="Thread2: embase" style="shape=umlFrame;whiteSpace=wrap;html=1;pointerEvents=0;width=110;height=30;fillColor=#ffe6cc;strokeColor=#d79b00;" vertex="1" parent="1">
          <mxGeometry x="284" y="524" width="116" height="56" as="geometry" />
        </mxCell>
        <mxCell id="5Shk7cCS_hNFrzOePCo_-48" style="edgeStyle=orthogonalEdgeStyle;rounded=0;orthogonalLoop=1;jettySize=auto;html=1;entryX=1;entryY=0.5;entryDx=0;entryDy=0;" edge="1" parent="1" source="5Shk7cCS_hNFrzOePCo_-6" target="5Shk7cCS_hNFrzOePCo_-46">
          <mxGeometry relative="1" as="geometry" />
        </mxCell>
        <mxCell id="5Shk7cCS_hNFrzOePCo_-49" style="edgeStyle=orthogonalEdgeStyle;rounded=0;orthogonalLoop=1;jettySize=auto;html=1;entryX=1;entryY=0.5;entryDx=0;entryDy=0;" edge="1" parent="1" source="5Shk7cCS_hNFrzOePCo_-6" target="5Shk7cCS_hNFrzOePCo_-47">
          <mxGeometry relative="1" as="geometry" />
        </mxCell>
        <mxCell id="5Shk7cCS_hNFrzOePCo_-6" value="Thread3: main" style="shape=umlFrame;whiteSpace=wrap;html=1;pointerEvents=0;width=90;height=30;fillColor=#ffe6cc;strokeColor=#d79b00;" vertex="1" parent="1">
          <mxGeometry x="278" y="380" width="126" height="60" as="geometry" />
        </mxCell>
        <mxCell id="5Shk7cCS_hNFrzOePCo_-25" value="flag_obstacle: bool" style="rounded=1;whiteSpace=wrap;html=1;fillColor=#e1d5e7;strokeColor=#9673a6;" vertex="1" parent="1">
          <mxGeometry x="289" y="330" width="110" height="30" as="geometry" />
        </mxCell>
        <mxCell id="5Shk7cCS_hNFrzOePCo_-26" value="pos_x: float" style="rounded=1;whiteSpace=wrap;html=1;fillColor=#e1d5e7;strokeColor=#9673a6;" vertex="1" parent="1">
          <mxGeometry x="208" y="450" width="110" height="30" as="geometry" />
        </mxCell>
        <mxCell id="5Shk7cCS_hNFrzOePCo_-27" value="pos_y: float" style="rounded=1;whiteSpace=wrap;html=1;direction=west;fillColor=#e1d5e7;strokeColor=#9673a6;" vertex="1" parent="1">
          <mxGeometry x="364" y="450" width="110" height="30" as="geometry" />
        </mxCell>
        <mxCell id="5Shk7cCS_hNFrzOePCo_-28" style="edgeStyle=orthogonalEdgeStyle;rounded=0;orthogonalLoop=1;jettySize=auto;html=1;entryX=0.498;entryY=0.008;entryDx=0;entryDy=0;entryPerimeter=0;" edge="1" parent="1" source="5Shk7cCS_hNFrzOePCo_-3" target="5Shk7cCS_hNFrzOePCo_-4">
          <mxGeometry relative="1" as="geometry" />
        </mxCell>
        <mxCell id="5Shk7cCS_hNFrzOePCo_-56" value="fifo" style="edgeLabel;html=1;align=center;verticalAlign=middle;resizable=0;points=[];" vertex="1" connectable="0" parent="5Shk7cCS_hNFrzOePCo_-28">
          <mxGeometry x="-0.2142" y="-2" relative="1" as="geometry">
            <mxPoint x="2" y="4" as="offset" />
          </mxGeometry>
        </mxCell>
        <mxCell id="5Shk7cCS_hNFrzOePCo_-32" style="edgeStyle=orthogonalEdgeStyle;rounded=0;orthogonalLoop=1;jettySize=auto;html=1;entryX=-0.01;entryY=0.437;entryDx=0;entryDy=0;entryPerimeter=0;" edge="1" parent="1" source="5Shk7cCS_hNFrzOePCo_-26" target="5Shk7cCS_hNFrzOePCo_-6">
          <mxGeometry relative="1" as="geometry">
            <Array as="points">
              <mxPoint x="263" y="406" />
            </Array>
          </mxGeometry>
        </mxCell>
        <mxCell id="5Shk7cCS_hNFrzOePCo_-36" value="LIDAR" style="ellipse;whiteSpace=wrap;html=1;aspect=fixed;fillColor=#f5f5f5;fontColor=#333333;strokeColor=#666666;" vertex="1" parent="1">
          <mxGeometry x="304" y="30" width="80" height="80" as="geometry" />
        </mxCell>
        <mxCell id="5Shk7cCS_hNFrzOePCo_-37" style="edgeStyle=orthogonalEdgeStyle;rounded=0;orthogonalLoop=1;jettySize=auto;html=1;entryX=0.496;entryY=-0.054;entryDx=0;entryDy=0;entryPerimeter=0;" edge="1" parent="1" source="5Shk7cCS_hNFrzOePCo_-36" target="5Shk7cCS_hNFrzOePCo_-3">
          <mxGeometry relative="1" as="geometry" />
        </mxCell>
        <mxCell id="5Shk7cCS_hNFrzOePCo_-53" value="UART (via USB)" style="edgeLabel;html=1;align=center;verticalAlign=middle;resizable=0;points=[];" vertex="1" connectable="0" parent="5Shk7cCS_hNFrzOePCo_-37">
          <mxGeometry x="-0.4379" y="2" relative="1" as="geometry">
            <mxPoint x="-2" y="3" as="offset" />
          </mxGeometry>
        </mxCell>
        <mxCell id="5Shk7cCS_hNFrzOePCo_-39" value="STM32 Embase" style="shape=umlFrame;whiteSpace=wrap;html=1;pointerEvents=0;width=100;height=30;fillColor=#f8cecc;strokeColor=#b85450;" vertex="1" parent="1">
          <mxGeometry x="240" y="670" width="164" height="100" as="geometry" />
        </mxCell>
        <mxCell id="5Shk7cCS_hNFrzOePCo_-40" value="main.cpp" style="shape=umlFrame;whiteSpace=wrap;html=1;pointerEvents=0;fillColor=#dae8fc;strokeColor=#6c8ebf;" vertex="1" parent="1">
          <mxGeometry x="324" y="710" width="70" height="40" as="geometry" />
        </mxCell>
        <mxCell id="5Shk7cCS_hNFrzOePCo_-42" value="Driver embase et moteurs" style="ellipse;whiteSpace=wrap;html=1;aspect=fixed;fillColor=#f5f5f5;fontColor=#333333;strokeColor=#666666;" vertex="1" parent="1">
          <mxGeometry x="319" y="810" width="80" height="80" as="geometry" />
        </mxCell>
        <mxCell id="5Shk7cCS_hNFrzOePCo_-43" style="edgeStyle=orthogonalEdgeStyle;rounded=0;orthogonalLoop=1;jettySize=auto;html=1;entryX=0.499;entryY=1;entryDx=0;entryDy=0;entryPerimeter=0;" edge="1" parent="1" source="5Shk7cCS_hNFrzOePCo_-42" target="5Shk7cCS_hNFrzOePCo_-40">
          <mxGeometry relative="1" as="geometry" />
        </mxCell>
        <mxCell id="5Shk7cCS_hNFrzOePCo_-57" value="Connectique shields STMicroelectronics" style="edgeLabel;html=1;align=center;verticalAlign=middle;resizable=0;points=[];" vertex="1" connectable="0" parent="5Shk7cCS_hNFrzOePCo_-43">
          <mxGeometry x="-0.0676" y="1" relative="1" as="geometry">
            <mxPoint x="1" y="8" as="offset" />
          </mxGeometry>
        </mxCell>
        <mxCell id="5Shk7cCS_hNFrzOePCo_-46" value="flag_new_move: bool" style="rounded=1;whiteSpace=wrap;html=1;direction=west;fillColor=#e1d5e7;strokeColor=#9673a6;" vertex="1" parent="1">
          <mxGeometry x="494" y="380" width="110" height="30" as="geometry" />
        </mxCell>
        <mxCell id="5Shk7cCS_hNFrzOePCo_-47" value="cmd_move: int" style="rounded=1;whiteSpace=wrap;html=1;direction=west;fillColor=#e1d5e7;strokeColor=#9673a6;" vertex="1" parent="1">
          <mxGeometry x="494" y="420" width="110" height="30" as="geometry" />
        </mxCell>
        <mxCell id="5Shk7cCS_hNFrzOePCo_-50" style="edgeStyle=orthogonalEdgeStyle;rounded=0;orthogonalLoop=1;jettySize=auto;html=1;entryX=1.006;entryY=0.458;entryDx=0;entryDy=0;entryPerimeter=0;" edge="1" parent="1" source="5Shk7cCS_hNFrzOePCo_-47" target="5Shk7cCS_hNFrzOePCo_-5">
          <mxGeometry relative="1" as="geometry">
            <mxPoint x="530" y="560" as="targetPoint" />
            <Array as="points">
              <mxPoint x="614" y="435" />
              <mxPoint x="614" y="550" />
              <mxPoint x="401" y="550" />
            </Array>
          </mxGeometry>
        </mxCell>
        <mxCell id="5Shk7cCS_hNFrzOePCo_-51" style="edgeStyle=orthogonalEdgeStyle;rounded=0;orthogonalLoop=1;jettySize=auto;html=1;entryX=1.017;entryY=0.707;entryDx=0;entryDy=0;entryPerimeter=0;" edge="1" parent="1" target="5Shk7cCS_hNFrzOePCo_-5">
          <mxGeometry relative="1" as="geometry">
            <mxPoint x="603.34" y="390" as="sourcePoint" />
            <mxPoint x="450" y="596" as="targetPoint" />
            <Array as="points">
              <mxPoint x="633" y="390" />
              <mxPoint x="633" y="564" />
              <mxPoint x="402" y="564" />
            </Array>
          </mxGeometry>
        </mxCell>
        <mxCell id="5Shk7cCS_hNFrzOePCo_-58" value="&lt;h1 style=&quot;margin-top: 0px;&quot;&gt;Légende&lt;/h1&gt;&lt;p style=&quot;text-align: right;&quot;&gt;Composant matériel&lt;/p&gt;&lt;p style=&quot;text-align: right;&quot;&gt;&lt;br&gt;&lt;/p&gt;&lt;p style=&quot;text-align: right;&quot;&gt;Composant matériel programmable&lt;/p&gt;&lt;p style=&quot;text-align: right;&quot;&gt;&lt;br&gt;&lt;/p&gt;&lt;p style=&quot;text-align: right;&quot;&gt;Programme&lt;/p&gt;&lt;p style=&quot;text-align: right;&quot;&gt;&lt;br&gt;&lt;/p&gt;&lt;p style=&quot;text-align: right;&quot;&gt;Thread&lt;/p&gt;&lt;p style=&quot;text-align: right;&quot;&gt;&lt;br&gt;&lt;/p&gt;&lt;p style=&quot;text-align: right;&quot;&gt;Variable globale&lt;/p&gt;&lt;p style=&quot;text-align: right;&quot;&gt;&lt;br&gt;&lt;/p&gt;&lt;p style=&quot;text-align: right;&quot;&gt;Fichier&lt;/p&gt;" style="text;html=1;whiteSpace=wrap;overflow=hidden;rounded=0;align=left;strokeColor=default;" vertex="1" parent="1">
          <mxGeometry x="540" y="780" width="260" height="350" as="geometry" />
        </mxCell>
        <mxCell id="5Shk7cCS_hNFrzOePCo_-59" value="" style="ellipse;whiteSpace=wrap;html=1;aspect=fixed;fillColor=#f5f5f5;fontColor=#333333;strokeColor=#666666;" vertex="1" parent="1">
          <mxGeometry x="750" y="820" width="39" height="39" as="geometry" />
        </mxCell>
        <mxCell id="5Shk7cCS_hNFrzOePCo_-60" value="" style="shape=umlFrame;whiteSpace=wrap;html=1;pointerEvents=0;fillColor=#f8cecc;strokeColor=#b85450;width=30;height=30;" vertex="1" parent="1">
          <mxGeometry x="750" y="870" width="40.5" height="40" as="geometry" />
        </mxCell>
        <mxCell id="5Shk7cCS_hNFrzOePCo_-61" value="" style="shape=umlFrame;whiteSpace=wrap;html=1;pointerEvents=0;fillColor=#dae8fc;strokeColor=#6c8ebf;width=30;height=30;" vertex="1" parent="1">
          <mxGeometry x="750.5" y="920" width="40.5" height="40" as="geometry" />
        </mxCell>
        <mxCell id="5Shk7cCS_hNFrzOePCo_-62" value="" style="shape=umlFrame;whiteSpace=wrap;html=1;pointerEvents=0;fillColor=#ffe6cc;strokeColor=#d79b00;width=30;height=30;" vertex="1" parent="1">
          <mxGeometry x="750.5" y="970" width="40.5" height="40" as="geometry" />
        </mxCell>
        <mxCell id="5Shk7cCS_hNFrzOePCo_-63" value="" style="rounded=1;whiteSpace=wrap;html=1;fillColor=#e1d5e7;strokeColor=#9673a6;" vertex="1" parent="1">
          <mxGeometry x="750.5" y="1020" width="40" height="40" as="geometry" />
        </mxCell>
        <mxCell id="5Shk7cCS_hNFrzOePCo_-64" value="classe Embase" style="text;html=1;align=center;verticalAlign=middle;whiteSpace=wrap;rounded=0;" vertex="1" parent="1">
          <mxGeometry x="295.5" y="555" width="91" height="30" as="geometry" />
        </mxCell>
        <mxCell id="5Shk7cCS_hNFrzOePCo_-65" style="edgeStyle=orthogonalEdgeStyle;rounded=0;orthogonalLoop=1;jettySize=auto;html=1;" edge="1" parent="1" source="5Shk7cCS_hNFrzOePCo_-40">
          <mxGeometry relative="1" as="geometry">
            <mxPoint x="370" y="580" as="targetPoint" />
            <Array as="points">
              <mxPoint x="370" y="580" />
            </Array>
          </mxGeometry>
        </mxCell>
        <mxCell id="5Shk7cCS_hNFrzOePCo_-66" style="edgeStyle=orthogonalEdgeStyle;rounded=0;orthogonalLoop=1;jettySize=auto;html=1;entryX=0.524;entryY=0;entryDx=0;entryDy=0;entryPerimeter=0;" edge="1" parent="1" source="5Shk7cCS_hNFrzOePCo_-25" target="5Shk7cCS_hNFrzOePCo_-6">
          <mxGeometry relative="1" as="geometry" />
        </mxCell>
        <mxCell id="5Shk7cCS_hNFrzOePCo_-67" style="edgeStyle=orthogonalEdgeStyle;rounded=0;orthogonalLoop=1;jettySize=auto;html=1;entryX=1.007;entryY=0.773;entryDx=0;entryDy=0;entryPerimeter=0;" edge="1" parent="1" source="5Shk7cCS_hNFrzOePCo_-27" target="5Shk7cCS_hNFrzOePCo_-6">
          <mxGeometry relative="1" as="geometry">
            <Array as="points">
              <mxPoint x="419" y="426" />
            </Array>
          </mxGeometry>
        </mxCell>
        <mxCell id="5Shk7cCS_hNFrzOePCo_-68" value="classe Autopilot" style="text;html=1;align=center;verticalAlign=middle;whiteSpace=wrap;rounded=0;" vertex="1" parent="1">
          <mxGeometry x="295.5" y="410" width="91" height="30" as="geometry" />
        </mxCell>
        <mxCell id="5Shk7cCS_hNFrzOePCo_-71" value="classe Lidar" style="text;html=1;align=center;verticalAlign=middle;whiteSpace=wrap;rounded=0;" vertex="1" parent="1">
          <mxGeometry x="298.5" y="280" width="91" height="30" as="geometry" />
        </mxCell>
        <mxCell id="5Shk7cCS_hNFrzOePCo_-72" style="edgeStyle=orthogonalEdgeStyle;rounded=0;orthogonalLoop=1;jettySize=auto;html=1;" edge="1" parent="1" source="5Shk7cCS_hNFrzOePCo_-5">
          <mxGeometry relative="1" as="geometry">
            <mxPoint x="360" y="710" as="targetPoint" />
            <Array as="points">
              <mxPoint x="360" y="630" />
              <mxPoint x="360" y="630" />
            </Array>
          </mxGeometry>
        </mxCell>
        <mxCell id="5Shk7cCS_hNFrzOePCo_-73" value="UART (via USB)" style="edgeLabel;html=1;align=center;verticalAlign=middle;resizable=0;points=[];" vertex="1" connectable="0" parent="5Shk7cCS_hNFrzOePCo_-72">
          <mxGeometry x="-0.2292" y="-1" relative="1" as="geometry">
            <mxPoint x="5" y="6" as="offset" />
          </mxGeometry>
        </mxCell>
        <mxCell id="5Shk7cCS_hNFrzOePCo_-74" value="trajectoire.txt" style="swimlane;whiteSpace=wrap;html=1;fillColor=#d5e8d4;strokeColor=#82b366;" vertex="1" parent="1">
          <mxGeometry x="474" y="170" width="120" height="30" as="geometry" />
        </mxCell>
        <mxCell id="5Shk7cCS_hNFrzOePCo_-75" style="edgeStyle=orthogonalEdgeStyle;rounded=0;orthogonalLoop=1;jettySize=auto;html=1;entryX=1.011;entryY=0.341;entryDx=0;entryDy=0;entryPerimeter=0;" edge="1" parent="1" source="5Shk7cCS_hNFrzOePCo_-74" target="5Shk7cCS_hNFrzOePCo_-6">
          <mxGeometry relative="1" as="geometry">
            <Array as="points">
              <mxPoint x="430" y="185" />
              <mxPoint x="430" y="401" />
            </Array>
          </mxGeometry>
        </mxCell>
        <mxCell id="5Shk7cCS_hNFrzOePCo_-76" value="" style="swimlane;whiteSpace=wrap;html=1;fillColor=#d5e8d4;strokeColor=#82b366;" vertex="1" parent="1">
          <mxGeometry x="750.5" y="1089" width="39.5" height="30" as="geometry" />
        </mxCell>
      </root>
    </mxGraphModel>
  </diagram>
</mxfile>
